<svg width="32" height="32" viewBox="0 0 32 32" fill="none" xmlns="http://www.w3.org/2000/svg">
  <path d="M16 10C16 10 11.3 12.1 7.5 12.1C4.5 12.1 1 10 1 10V22C1 22 4.5 24.1 7.5 24.1C11.3 24.1 16 22 16 22M16 10C16 10 20.7 12.1 24.5 12.1C27.5 12.1 31 10 31 10V22C31 22 27.5 24.1 24.5 24.1C20.7 24.1 16 22 16 22M16 10V22" stroke="#FF4D6D" stroke-width="2" stroke-linecap="round" stroke-linejoin="round"/>
  <path d="M16 4C18.4 4 20 5.8 20 8C20 11.3 16.5 14 16 14C15.5 14 12 11.3 12 8C12 5.8 13.6 4 16 4Z" fill="#7EA16B"/>
</svg>